<svg width="1200" height="630" viewBox="0 0 1200 630" fill="none" xmlns="http://www.w3.org/2000/svg">
  <rect width="1200" height="630" fill="#0A0A0A"/>
  <rect x="0" y="0" width="1200" height="630" fill="url(#gradient)" opacity="0.3"/>

  <!-- WhatsApp Icon -->
  <circle cx="600" cy="250" r="80" fill="#25D366"/>
  <path d="M600 190c-33.1 0-60 26.9-60 60 0 13.2 4.3 25.4 11.6 35.3l-7.6 27.7 28.4-7.4c9.5 6.4 20.9 10.1 33.1 10.1 33.1 0 60-26.9 60-60s-26.9-60-60-60zm0 110c-10.7 0-20.6-3.3-28.8-8.9l-2-1.2-21 5.5 5.6-20.4-.1-.2c-6.3-8.7-10-19.4-10-30.8 0-27.6 22.4-50 50-50s50 22.4 50 50-22.4 50-50 50z" fill="white"/>
  <path d="M625 275c-1.4-.7-8.3-4.1-9.6-4.6-1.3-.5-2.2-.7-3.2.7-1 1.4-3.8 4.8-4.6 5.7-.9.9-1.8 1-3.2.3-1.4-.7-6-2.2-11.4-7-4.2-3.7-7-8.3-7.9-9.7-.8-1.4-.1-2.2.6-2.9.7-.6 1.4-1.6 2.2-2.4.7-.8 1-1.4 1.4-2.3.5-1 .2-1.8-.1-2.5-.3-.7-3.2-7.7-4.3-10.5-1.1-2.8-2.3-2.4-3.2-2.4-.8 0-1.8-.1-2.8-.1s-2.5.4-3.9 1.8c-1.3 1.4-5.1 5-5.1 12.2s5.2 14.2 6 15.2c.7 1 10.3 15.7 24.9 22 3.5 1.5 6.2 2.4 8.3 3.1 3.5 1.1 6.7.9 9.2.6 2.8-.4 8.3-3.4 9.5-6.7 1.2-3.3 1.2-6.1.8-6.7-.4-.6-1.4-.9-2.8-1.6z" fill="white"/>

  <!-- Text -->
  <text x="600" y="380" font-family="system-ui, -apple-system, sans-serif" font-size="56" font-weight="bold" fill="white" text-anchor="middle">AutoWhats</text>
  <text x="600" y="430" font-family="system-ui, -apple-system, sans-serif" font-size="24" fill="#888888" text-anchor="middle">Automatiza tu WhatsApp Business con IA</text>
  <text x="600" y="470" font-family="system-ui, -apple-system, sans-serif" font-size="20" fill="#25D366" text-anchor="middle">Respuestas 24/7 | Cero mensajes perdidos | Mas ventas</text>

  <defs>
    <linearGradient id="gradient" x1="0%" y1="0%" x2="100%" y2="100%">
      <stop offset="0%" style="stop-color:#25D366;stop-opacity:1" />
      <stop offset="100%" style="stop-color:#128C7E;stop-opacity:1" />
    </linearGradient>
  </defs>
</svg>
