<svg xmlns="http://www.w3.org/2000/svg" viewBox="0 0 32 32">
  <defs>
    <linearGradient id="grad" x1="0%" y1="0%" x2="100%" y2="100%">
      <stop offset="0%" style="stop-color:#f97316"/>
      <stop offset="100%" style="stop-color:#ea580c"/>
    </linearGradient>
  </defs>
  <rect width="32" height="32" rx="8" fill="url(#grad)"/>
  <path d="M16 8c-4.4 0-8 3.6-8 8 0 1.4.4 2.8 1.1 4l-1.1 4 4.1-1.1c1.2.7 2.5 1.1 3.9 1.1 4.4 0 8-3.6 8-8s-3.6-8-8-8zm4.4 11.2c-.2.5-1.1 1-1.5 1.1-.4.1-.9.1-1.5-.1-.4-.1-.8-.3-1.4-.5-2.4-1-4-3.5-4.1-3.6-.1-.2-1-1.3-1-2.5s.6-1.8.9-2c.2-.3.5-.3.7-.3h.5c.2 0 .4 0 .6.5.2.5.8 1.9.8 2 .1.1.1.3 0 .5-.1.2-.1.3-.2.4-.1.2-.3.4-.4.5-.2.1-.3.3-.2.5.2.3.8 1.3 1.7 2.1 1.2 1 2.1 1.3 2.4 1.5.3.1.4.1.6-.1.2-.2.7-.8.9-1.1.2-.3.4-.2.6-.1.3.1 1.6.8 1.9.9.3.2.5.2.6.4.1.1.1.7-.1 1.3z" fill="white"/>
</svg>
